<?xml version="1.0" encoding="UTF-8"?>
<svg id="Layer_2" data-name="Layer 2" xmlns="http://www.w3.org/2000/svg" xmlns:xlink="http://www.w3.org/1999/xlink" viewBox="0 0 440.83 379.91">
  <defs>
    <style>
      .cls-1 {
        fill: #fff;
      }

      .cls-2 {
        fill: url(#linear-gradient);
      }
    </style>
    <linearGradient id="linear-gradient" x1="40.4" y1="85.37" x2="400.42" y2="293.23" gradientUnits="userSpaceOnUse">
      <stop offset=".09" stop-color="#f47d6b"/>
      <stop offset=".43" stop-color="#e5185c"/>
      <stop offset=".55" stop-color="#9c3f97"/>
      <stop offset=".9" stop-color="#00b9e9"/>
    </linearGradient>
  </defs>
  <g id="Layer_1-2" data-name="Layer 1">
    <path class="cls-2" d="m293.7,205.48c-18.38-2.46-11.79,8-9.51,10.77,2.71,3.29,15.31,11.23,19.33,2.11,4.02-9.11-5.81-12.34-9.82-12.88Zm-135.88-43.09c-2.72-3.3-15.31-11.23-19.33-2.12-4.03,9.12,5.81,12.35,9.82,12.88,18.37,2.47,11.79-8,9.51-10.76Zm23.93,66.22c-5.81-2.91-16.46,5.31-18.37,9.91-1.33,3.19-2.66,9.87,4.03,13.28,9.18,4.68,17.03-9.42,17.03-9.42,2.79-5.39,3.14-10.85-2.69-13.77Zm102.72,16.98c-1.32-1.8-3.39-3.03-5.1-4.36-3.12-2.4-6.37-4.76-9.92-6.49-1.8-.88-5.58-2.67-7.12-.42-3.51,5.13,1.22,13.23,5.31,17.91,3.08,3.53,7.19,6.35,12.09,5.19,2.55-.6,5.55-2.36,6.21-5.08.55-2.27-.09-4.88-1.47-6.75Zm14.51-80.03c-5.7-6.41-16.06,2.14-16.06,2.14-3.79,3.33-7.45,6.59-3.83,10.61s17.58,2.75,20.44-.23c2-2.06,3.59-7.86-.56-12.52Zm-136.38,33.36c-3.97-3.68-16.2-.3-18.8,2.93-1.8,2.24-4.41,7.26.12,11.54,6.25,5.88,15.8-3.56,15.8-3.56,3.48-3.66,6.85-7.22,2.88-10.91Zm110.56-72.86c-9.19-4.69-17.04,9.42-17.04,9.42-2.79,5.39-3.14,10.85,2.69,13.77,5.82,2.91,16.46-5.32,18.38-9.91,1.32-3.19,2.65-9.87-4.03-13.28Zm-100.24-.44c-3.09-3.53-7.2-6.35-12.1-5.19-2.55.59-5.54,2.36-6.2,5.08-.56,2.28.09,4.89,1.46,6.76,1.32,1.8,3.39,3.02,5.1,4.35,3.12,2.41,6.37,4.77,9.93,6.5,1.8.87,5.57,2.67,7.12.41,3.5-5.12-1.23-13.22-5.31-17.9Zm97.92,185.35c-.69-3.98-2.78-11.42-9.08-16.45-9.09-7.27-17.48-30.32-17.48-30.32,0,0-1.03-3.97-2.93-3.82-1.9.14-2.68,3.33-1.92,6.64.75,3.3,1.2,3.03.87,6.08-.34,3.05-2.84,12.73-3.84,20.41-.71,5.48-.62,9.88.06,14.27-2.2,1.12-3.69,3.42-3.69,6.04,0,3.76,3.04,6.8,6.8,6.8s6.8-3.04,6.8-6.8c0-3.19-2.21-5.88-5.18-6.6-.26-3.3-.36-7.25.28-9.94,1.29-5.42,3.26-11.4,3.26-11.4,0,0,2-.95,3.87,9.83,1.59,9.26,5.18,30.39,6.17,36.21-3.44,1.46-5.87,4.87-5.87,8.86,0,5.31,4.31,9.61,9.61,9.61s9.62-4.31,9.62-9.61c0-5.02-3.84-9.13-8.73-9.58-.9-6.6-4.29-30.78-5.67-34.28-1.5-3.8,10.84,3.01,12.97,15.27-1.76,1.23-2.9,3.26-2.9,5.56,0,3.75,3.05,6.79,6.8,6.79s6.8-3.04,6.8-6.79-2.95-6.72-6.64-6.79Zm-64.16-2.54c.68-4.38.77-8.79.06-14.27-1-7.68-3.5-17.36-3.84-20.41-.33-3.05.12-2.78.87-6.08.76-3.31-.02-6.5-1.92-6.64-1.9-.15-2.93,3.82-2.93,3.82,0,0-8.39,23.04-17.48,30.32-6.29,5.04-8.38,12.47-9.08,16.45-3.68.08-6.64,3.09-6.64,6.79s3.04,6.79,6.8,6.79,6.8-3.04,6.8-6.79c0-2.3-1.14-4.34-2.9-5.56,2.13-12.26,14.47-19.07,12.97-15.27-1.38,3.5-4.77,27.68-5.67,34.28-4.89.45-8.73,4.57-8.73,9.58,0,5.31,4.31,9.61,9.62,9.61s9.61-4.31,9.61-9.61c0-3.99-2.43-7.41-5.87-8.86.99-5.81,4.58-26.95,6.17-36.21,1.87-10.78,3.87-9.83,3.87-9.83,0,0,1.98,5.98,3.26,11.4.64,2.69.54,6.64.28,9.94-2.97.72-5.18,3.41-5.18,6.6,0,3.76,3.05,6.8,6.8,6.8s6.8-3.04,6.8-6.8c0-2.63-1.5-4.92-3.69-6.04Zm61.37-254.68c-3.75,0-6.8,3.04-6.8,6.79,0,2.3,1.14,4.34,2.9,5.56-2.13,12.26-14.47,19.07-12.97,15.27,1.38-3.5,4.77-27.68,5.67-34.28,4.89-.45,8.73-4.57,8.73-9.58,0-5.31-4.31-9.61-9.62-9.61s-9.61,4.31-9.61,9.61c0,3.99,2.43,7.41,5.87,8.86-.99,5.81-4.58,26.95-6.17,36.21-1.87,10.78-3.87,9.83-3.87,9.83,0,0-1.98-5.98-3.26-11.4-.64-2.69-.54-6.64-.28-9.94,2.97-.72,5.18-3.41,5.18-6.6,0-3.76-3.05-6.8-6.8-6.8s-6.8,3.04-6.8,6.8c0,2.63,1.5,4.92,3.69,6.04-.68,4.38-.77,8.79-.06,14.27,1,7.68,3.5,17.36,3.84,20.41.33,3.05-.12,2.78-.87,6.08-.76,3.31.02,6.49,1.92,6.64,1.9.15,2.93-3.82,2.93-3.82,0,0,8.39-23.04,17.48-30.32,6.29-5.04,8.38-12.47,9.08-16.45,3.68-.08,6.64-3.09,6.64-6.79s-3.04-6.79-6.8-6.79Zm-60.31,10.07c0-3.76-3.04-6.8-6.8-6.8s-6.8,3.04-6.8,6.8c0,3.19,2.21,5.88,5.18,6.6.26,3.3.36,7.25-.28,9.94-1.29,5.42-3.26,11.4-3.26,11.4,0,0-2,.95-3.87-9.83-1.59-9.26-5.18-30.39-6.17-36.21,3.44-1.46,5.87-4.87,5.87-8.86,0-5.31-4.31-9.61-9.61-9.61s-9.62,4.31-9.62,9.61c0,5.02,3.84,9.13,8.73,9.58.9,6.6,4.29,30.78,5.67,34.28,1.5,3.8-10.84-3.01-12.97-15.27,1.76-1.23,2.9-3.26,2.9-5.56,0-3.75-3.05-6.79-6.8-6.79s-6.8,3.04-6.8,6.79,2.95,6.72,6.64,6.79c.69,3.98,2.78,11.42,9.08,16.45,9.09,7.27,17.48,30.32,17.48,30.32,0,0,1.03,3.97,2.93,3.82,1.9-.14,2.68-3.33,1.92-6.64-.75-3.3-1.2-3.03-.87-6.08.34-3.05,2.84-12.73,3.84-20.41.71-5.48.62-9.88-.06-14.27,2.2-1.12,3.69-3.42,3.69-6.04Zm216.23,138.07c-6.26,0-11.73,3.43-14.63,8.52,0,0-23.95-4.85-44.54-8.39-20.6-3.54-18.38-5.3-18.38-5.3,0,0,18.27-12.02,31.94-13.65,1.83,2.78,4.99,4.61,8.57,4.61,5.68,0,10.28-4.6,10.28-10.27s-4.6-10.27-10.28-10.27c-5.17,0-9.44,3.82-10.16,8.8-6.97,1.65-20.47,5.88-32.75,15.66,0,0-6.3,6.14-14.01,2.69,0,0-2.37-1.75,7.18-9.33,9.54-7.59,19.85-23.99,33.63-27.53,12.81-3.28,29.92-10.58,32.24-11.58,2.67,5.75,8.49,9.72,15.24,9.72,9.3,0,16.83-7.53,16.83-16.83s-7.53-16.84-16.83-16.84-16.27,7-16.8,15.83c-4.05.84-37.25,8.03-49.07,18.89-12.6,11.57-33.42,29.5-33.42,29.5,0,0-33.48,4.37-45.36-4.66,0,0-10.92-6.77,22.48-30.94,0,0,14.27-2.71,30.93-1.91,1.6,3.58,5.21,6.08,9.38,6.08,5.68,0,10.27-4.61,10.27-10.27s-4.6-10.27-10.27-10.27c-4.52,0-8.36,2.92-9.73,6.97-4.69.27-12.17.4-20.59-.52,0,0-6.77,2.23,12.28-13.86,17.48-14.76,38.12-37.49,41.42-41.16,2.3,1.19,4.92,1.86,7.69,1.86,9.3,0,16.84-7.54,16.84-16.84s-7.54-16.83-16.84-16.83-16.83,7.53-16.83,16.83c0,3.21.9,6.22,2.47,8.78l-52.27,50.01s-1.91-.27-.65-10.75c.72-6.04,1.62-13.54,2.24-18.81,4.22-1.28,7.29-5.2,7.29-9.83,0-5.68-4.6-10.27-10.27-10.27s-10.27,4.6-10.27,10.27c0,3.53,1.78,6.66,4.51,8.51-.63,10.97-2.08,32.87-3.82,39.21-2.36,8.57-23.66,22.69-34.62,17.54-10.97-5.16-10.31-14.82-5.06-24.36,5.26-9.54,22.63-33.88,27.59-46.58,3.49-8.93,14.02-25.38,19.96-34.36,1.58.5,3.27.77,5.03.77,9.3,0,16.84-7.54,16.84-16.83s-7.54-16.84-16.84-16.84-16.83,7.54-16.83,16.84c0,4.31,1.62,8.25,4.31,11.22h0c-5.29,8.76-14.44,24.1-16.64,28.76-3.13,6.65-23.99,37-23.99,37,0,0-8.27,16.13-15.6,22.71-5.29,4.76-4.84-8.55-5.03-20.37-.19-11.72-1.31-60.47-1.78-81.07,5.8-2.65,9.84-8.52,9.84-15.32,0-9.3-7.53-16.83-16.83-16.83s-16.84,7.53-16.84,16.83c0,7.42,4.8,13.71,11.46,15.95-.59,11.44-.91,26.82-1.97,39.12-.92,10.68-.99,22.38-2.21,33.07-1.19,10.34-1.53,29.46-8.08,29.4-2.34-.02-17.78-15.03-39.82-57.5,0,0-11.49-21.91-14.9-31.82,3.69-3.09,6.04-7.73,6.04-12.92,0-9.3-7.53-16.83-16.83-16.83s-16.83,7.53-16.83,16.83,7.53,16.84,16.83,16.84c.79,0,1.55-.06,2.3-.16,5.37,11.44,21.98,46.17,34.07,65.57,6.41,10.29,17.2,24.92,10.36,34.91-5.61,8.19-29.94-10.42-40.51-19.35,0,0-5.78-1.57-5.73-16.44.02-8.62.09-14.26.14-17.48,3.87-1.47,6.62-5.21,6.62-9.6,0-5.67-4.6-10.27-10.27-10.27s-10.28,4.6-10.28,10.27c0,3.86,2.12,7.22,5.27,8.98l1.73,23.1-43.56-41.37c1.53-2.53,2.43-5.52,2.43-8.7,0-9.3-7.54-16.84-16.84-16.84s-16.83,7.54-16.83,16.84,7.53,16.83,16.83,16.83c2.83,0,5.51-.7,7.85-1.95l44.92,42.76s-6.07,2.79-23.46.26c-1.3-4.18-5.2-7.22-9.81-7.22-5.68,0-10.28,4.6-10.28,10.27s4.6,10.27,10.28,10.27c3.52,0,6.63-1.77,8.48-4.48,6.91,1.3,18.06,3.05,29.29,3.38,0,0,22.13,12.42,33.42,24.68,0,0,12.19,15.93-13.41,13.23-25.61-2.7-27.73-.1-37.58-8.52-9.85-8.41-33.64-25.8-33.64-25.8,0,0-9.47-7.75-15.07-15.89,1.3-1.72,2.06-3.86,2.06-6.17,0-5.67-4.61-10.27-10.28-10.27s-10.27,4.61-10.27,10.27,4.6,10.27,10.27,10.27c.94,0,1.85-.12,2.72-.36,3.27,4.85,9.73,13.79,15.92,18.32,8.76,6.43,28.38,22.01,28.38,22.01,0,0-24.94-3.39-37.41-5.7-12.79-2.38-28.35-5.91-31.69-6.68-.95-8.39-8.07-14.91-16.71-14.91-9.3,0-16.84,7.53-16.84,16.83s7.54,16.84,16.84,16.84c6.27,0,11.73-3.42,14.63-8.52,0,0,23.95,4.85,44.54,8.39,20.6,3.54,18.38,5.3,18.38,5.3,0,0-18.26,12.02-31.93,13.65-1.84-2.78-5-4.61-8.58-4.61-5.68,0-10.27,4.6-10.27,10.27s4.6,10.27,10.27,10.27c5.17,0,9.46-3.82,10.17-8.8,6.98-1.65,20.47-5.88,32.74-15.66,0,0,6.31-6.14,14.01-2.69,0,0,2.38,1.76-7.17,9.33-9.55,7.59-19.86,23.99-33.63,27.53-12.78,3.27-29.85,10.54-32.24,11.57-2.69-5.74-8.51-9.71-15.26-9.71-9.3,0-16.83,7.53-16.83,16.83s7.53,16.84,16.83,16.84,16.28-7,16.81-15.83c4.11-.85,37.25-8.04,49.06-18.89,12.6-11.57,33.42-29.5,33.42-29.5,0,0,33.48-4.37,45.36,4.66,0,0,10.93,6.77-22.48,30.94,0,0-14.27,2.71-30.94,1.91-1.6-3.59-5.2-6.08-9.37-6.08-5.67,0-10.27,4.61-10.27,10.27s4.61,10.27,10.27,10.27c4.52,0,8.36-2.92,9.73-6.97,4.69-.27,12.17-.4,20.59.52,0,0,6.77-2.23-12.28,13.86-17.49,14.76-38.14,37.53-41.42,41.17-2.3-1.2-4.92-1.87-7.69-1.87-9.3,0-16.84,7.54-16.84,16.84s7.54,16.83,16.84,16.83,16.83-7.53,16.83-16.83c0-3.22-.9-6.23-2.47-8.78l52.27-50.01s1.91.27.65,10.75c-.72,6.04-1.62,13.55-2.24,18.82-4.22,1.28-7.29,5.19-7.29,9.82,0,5.68,4.6,10.27,10.27,10.27s10.27-4.6,10.27-10.27c0-3.54-1.79-6.67-4.53-8.5.64-10.97,2.09-32.88,3.84-39.22,2.35-8.57,23.65-22.69,34.61-17.54,10.97,5.16,10.31,14.82,5.06,24.36s-22.63,33.88-27.59,46.58c-3.49,8.93-14.02,25.38-19.96,34.36-1.59-.5-3.28-.77-5.03-.77-9.3,0-16.83,7.54-16.83,16.84s7.53,16.83,16.83,16.83,16.84-7.54,16.84-16.83c0-4.33-1.63-8.26-4.31-11.24,5.29-8.76,14.44-24.09,16.63-28.75,3.13-6.65,23.99-37,23.99-37,0,0,8.28-16.13,15.6-22.71,5.29-4.76,4.84,8.55,5.04,20.37.18,11.95,1.34,62.39,1.8,82.25-5.98,2.58-10.16,8.53-10.16,15.45,0,9.3,7.54,16.84,16.84,16.84s16.83-7.54,16.83-16.84c0-7.33-4.69-13.58-11.24-15.88.64-11.56.94-27.71,2.04-40.5.92-10.68.99-22.38,2.22-33.07,1.18-10.34,1.52-29.45,8.07-29.4,2.34.03,17.79,15.03,39.82,57.5,0,0,11.49,21.91,14.91,31.82-3.7,3.08-6.05,7.72-6.05,12.92,0,9.3,7.53,16.83,16.83,16.83s16.84-7.53,16.84-16.83-7.54-16.84-16.84-16.84c-.78,0-1.55.06-2.3.16-5.37-11.44-21.98-46.17-34.07-65.57-6.41-10.29-17.2-24.92-10.36-34.91,5.61-8.19,29.94,10.42,40.51,19.35,0,0,5.78,1.57,5.73,16.44-.02,8.62-.09,14.26-.14,17.48-3.87,1.48-6.61,5.22-6.61,9.6,0,5.67,4.6,10.27,10.27,10.27s10.27-4.6,10.27-10.27c0-3.86-2.12-7.21-5.26-8.97l-1.74-23.11,43.56,41.38c-1.53,2.54-2.42,5.52-2.42,8.7,0,9.29,7.53,16.83,16.83,16.83s16.83-7.54,16.83-16.83-7.53-16.84-16.83-16.84c-2.84,0-5.51.7-7.85,1.95l-44.92-42.76s6.07-2.79,23.46-.26c1.3,4.18,5.2,7.22,9.81,7.22,5.68,0,10.27-4.6,10.27-10.27s-4.6-10.27-10.27-10.27c-3.52,0-6.63,1.77-8.48,4.48-6.92-1.3-18.06-3.05-29.29-3.38,0,0-22.13-12.42-33.42-24.68,0,0-12.19-15.93,13.41-13.23,25.62,2.7,27.73.1,37.58,8.52,9.86,8.42,33.64,25.8,33.64,25.8,0,0,9.47,7.75,15.07,15.88-1.3,1.72-2.06,3.86-2.06,6.18,0,5.67,4.61,10.27,10.27,10.27s10.28-4.61,10.28-10.27-4.6-10.27-10.28-10.27c-.94,0-1.85.12-2.71.36-3.27-4.85-9.73-13.79-15.92-18.32-8.76-6.43-28.38-22.01-28.38-22.01,0,0,24.94,3.39,37.41,5.7,12.79,2.38,28.35,5.91,31.69,6.68.94,8.39,8.07,14.91,16.71,14.91,9.3,0,16.84-7.53,16.84-16.83s-7.54-16.84-16.84-16.84Zm-5.38-71.23c4.47,0,8.09,3.63,8.09,8.09s-3.62,8.09-8.09,8.09-8.09-3.62-8.09-8.09,3.62-8.09,8.09-8.09Zm-51-68.06c4.46,0,8.09,3.63,8.09,8.09s-3.63,8.09-8.09,8.09-8.1-3.62-8.1-8.09,3.63-8.09,8.1-8.09Zm-64.71-36.57c4.47,0,8.09,3.62,8.09,8.09s-3.62,8.09-8.09,8.09-8.09-3.63-8.09-8.09,3.63-8.09,8.09-8.09Zm-165.69,14.31c-4.46,0-8.09-3.62-8.09-8.09s3.63-8.09,8.09-8.09,8.09,3.63,8.09,8.09-3.62,8.09-8.09,8.09Zm-64.34,36.14c-4.47,0-8.09-3.62-8.09-8.09s3.62-8.09,8.09-8.09,8.09,3.63,8.09,8.09-3.62,8.09-8.09,8.09Zm-56.25,91.19c-4.47,0-8.09-3.62-8.09-8.09s3.62-8.09,8.09-8.09,8.09,3.63,8.09,8.09-3.63,8.09-8.09,8.09Zm5.97,79.94c-4.46,0-8.09-3.62-8.09-8.09s3.63-8.09,8.09-8.09,8.1,3.62,8.1,8.09-3.63,8.09-8.1,8.09Zm50.72,68.63c-4.47,0-8.09-3.62-8.09-8.09s3.62-8.09,8.09-8.09,8.09,3.63,8.09,8.09-3.63,8.09-8.09,8.09Zm64.56,36.54c-4.47,0-8.09-3.62-8.09-8.09s3.62-8.09,8.09-8.09,8.09,3.63,8.09,8.09-3.63,8.09-8.09,8.09Zm166.07-14.06c4.46,0,8.09,3.63,8.09,8.09s-3.63,8.09-8.09,8.09-8.09-3.62-8.09-8.09,3.62-8.09,8.09-8.09ZM212.37,16.14c0-4.46,3.62-8.09,8.09-8.09s8.09,3.63,8.09,8.09-3.63,8.09-8.09,8.09-8.09-3.62-8.09-8.09Zm15.95,347.24c0,4.46-3.63,8.09-8.09,8.09s-8.09-3.63-8.09-8.09,3.62-8.09,8.09-8.09,8.09,3.62,8.09,8.09Zm32.01-149.12h-30.13c-1.99,0-3.62,1.58-3.66,3.58l-5.05,100.99-5.51-100.99c-.06-2-1.69-3.58-3.67-3.58h-30.66c-2.68,0-4.4-2.86-3.16-5.23l35.82-71.33c.54-1.01.87-2.1,1-3.23l.1-.89,4.58-55.3,4.42,55.24.05.58c.12,1.24.5,2.45,1.11,3.54l37.9,71.33c1.31,2.38-.41,5.3-3.13,5.3Zm107.92,87.86c4.46,0,8.09,3.62,8.09,8.09s-3.63,8.09-8.09,8.09-8.09-3.62-8.09-8.09,3.62-8.09,8.09-8.09Zm56.33-74.98c-4.47,0-8.09-3.63-8.09-8.09s3.62-8.09,8.09-8.09,8.09,3.62,8.09,8.09-3.63,8.09-8.09,8.09Z"/>
    <path class="cls-1" d="m213.56,165.05c1.7-3.8,4.83-4.99,6.53-4.99s4.82,1.15,6.47,4.99l17.28,39.31h-10l-4.02-9.69h-19.52l-4.02,9.69h-10l17.28-39.31Zm6.06,5.6l-5.48,14.89h11.13l-5.65-14.89Z"/>
  </g>
</svg>